<svg xmlns="http://www.w3.org/2000/svg" xmlns:xlink="http://www.w3.org/1999/xlink" width="60px" height="60px" >
  <path fill-rule="evenodd"  fill="#183f7c" d="M30.000,60.000 C13.458,60.000 0.000,46.542 0.000,30.000 C0.000,13.458 13.458,0.000 30.000,0.000 C46.542,0.000 60.000,13.458 60.000,30.000 C60.000,46.542 46.542,60.000 30.000,60.000 ZM29.000,51.879 C29.000,52.432 29.448,52.879 30.000,52.879 C30.552,52.879 31.000,52.432 31.000,51.879 L31.000,50.879 C31.000,50.326 30.552,49.879 30.000,49.879 C29.448,49.879 29.000,50.326 29.000,50.879 L29.000,51.879 ZM9.000,28.879 L8.000,28.879 C7.448,28.879 7.000,29.326 7.000,29.879 C7.000,30.432 7.448,30.879 8.000,30.879 L9.000,30.879 C9.552,30.879 10.000,30.432 10.000,29.879 C10.000,29.326 9.552,28.879 9.000,28.879 ZM15.858,14.322 L15.151,13.615 C14.760,13.224 14.128,13.224 13.737,13.615 C13.346,14.006 13.346,14.638 13.737,15.029 L14.444,15.736 C14.639,15.931 14.895,16.029 15.151,16.029 C15.407,16.029 15.663,15.931 15.858,15.736 C16.249,15.346 16.249,14.713 15.858,14.322 ZM15.858,44.022 C15.467,43.631 14.835,43.631 14.444,44.022 L13.737,44.729 C13.346,45.120 13.346,45.752 13.737,46.143 C13.932,46.338 14.188,46.436 14.444,46.436 C14.700,46.436 14.956,46.338 15.151,46.143 L15.858,45.436 C16.249,45.045 16.249,44.413 15.858,44.022 ZM31.000,7.879 C31.000,7.326 30.552,6.879 30.000,6.879 C29.448,6.879 29.000,7.326 29.000,7.879 L29.000,8.879 C29.000,9.432 29.448,9.879 30.000,9.879 C30.552,9.879 31.000,9.432 31.000,8.879 L31.000,7.879 ZM31.000,26.021 L31.000,15.879 C31.000,15.326 30.552,14.879 30.000,14.879 C29.448,14.879 29.000,15.326 29.000,15.879 L29.000,26.021 C27.601,26.385 26.506,27.480 26.142,28.879 L19.000,28.879 C18.448,28.879 18.000,29.326 18.000,29.879 C18.000,30.432 18.448,30.879 19.000,30.879 L26.142,30.879 C26.589,32.599 28.142,33.879 30.000,33.879 C32.206,33.879 34.000,32.085 34.000,29.879 C34.000,28.020 32.720,26.468 31.000,26.021 ZM46.263,13.615 C45.872,13.224 45.240,13.224 44.849,13.615 L44.142,14.322 C43.751,14.713 43.751,15.345 44.142,15.736 C44.337,15.931 44.593,16.029 44.849,16.029 C45.105,16.029 45.361,15.931 45.556,15.736 L46.263,15.029 C46.654,14.639 46.654,14.006 46.263,13.615 ZM46.263,44.729 L45.556,44.022 C45.165,43.631 44.533,43.631 44.142,44.022 C43.751,44.413 43.751,45.045 44.142,45.436 L44.849,46.143 C45.044,46.338 45.300,46.436 45.556,46.436 C45.812,46.436 46.068,46.338 46.263,46.143 C46.654,45.752 46.654,45.119 46.263,44.729 ZM52.000,28.879 L51.000,28.879 C50.448,28.879 50.000,29.326 50.000,29.879 C50.000,30.432 50.448,30.879 51.000,30.879 L52.000,30.879 C52.552,30.879 53.000,30.432 53.000,29.879 C53.000,29.326 52.552,28.879 52.000,28.879 ZM30.000,31.879 C28.895,31.879 28.000,30.984 28.000,29.879 C28.000,28.774 28.895,27.879 30.000,27.879 C31.105,27.879 32.000,28.774 32.000,29.879 C32.000,30.984 31.105,31.879 30.000,31.879 Z"/>
</svg>
