<svg xmlns="http://www.w3.org/2000/svg" xmlns:xlink="http://www.w3.org/1999/xlink" width="60px" height="60px">
  <path fill-rule="evenodd"  fill="#183f7c" d="M58.721,48.706 L46.137,36.120 C45.236,35.265 44.184,34.838 42.982,34.838 C41.757,34.838 40.647,35.335 39.654,36.329 L30.779,27.453 L35.148,23.085 C35.472,22.761 35.634,22.368 35.634,21.906 C35.634,21.444 35.472,21.051 35.148,20.727 C35.194,20.773 35.333,20.917 35.564,21.161 C35.795,21.403 35.946,21.548 36.015,21.594 C36.085,21.640 36.217,21.755 36.413,21.941 C36.611,22.125 36.766,22.241 36.882,22.287 C36.999,22.333 37.155,22.402 37.352,22.495 C37.548,22.587 37.738,22.651 37.924,22.686 C38.108,22.720 38.317,22.738 38.548,22.738 C39.425,22.738 40.212,22.414 40.905,21.767 C40.975,21.697 41.182,21.507 41.529,21.195 C41.876,20.882 42.112,20.663 42.240,20.536 C42.367,20.409 42.558,20.195 42.812,19.895 C43.067,19.594 43.246,19.340 43.350,19.132 C43.453,18.924 43.557,18.669 43.662,18.369 C43.765,18.069 43.817,17.768 43.817,17.468 C43.817,16.543 43.494,15.757 42.846,15.110 L28.701,0.965 C28.054,0.318 27.268,-0.005 26.344,-0.005 C26.044,-0.005 25.743,0.046 25.442,0.150 C25.142,0.254 24.888,0.358 24.680,0.462 C24.472,0.566 24.218,0.745 23.917,1.000 C23.617,1.254 23.403,1.445 23.276,1.572 C23.149,1.699 22.929,1.936 22.617,2.283 C22.305,2.629 22.114,2.838 22.045,2.907 C21.398,3.600 21.074,4.386 21.074,5.264 C21.074,5.495 21.092,5.703 21.126,5.888 C21.161,6.073 21.225,6.264 21.317,6.461 C21.409,6.657 21.479,6.813 21.525,6.929 C21.571,7.044 21.686,7.200 21.872,7.397 C22.057,7.593 22.172,7.726 22.218,7.796 C22.264,7.866 22.409,8.015 22.652,8.247 C22.894,8.478 23.039,8.617 23.085,8.663 C22.762,8.339 22.369,8.177 21.907,8.177 C21.444,8.177 21.051,8.339 20.728,8.663 L8.661,20.728 C8.337,21.052 8.175,21.445 8.175,21.907 C8.175,22.369 8.337,22.762 8.661,23.086 C8.615,23.040 8.476,22.895 8.245,22.652 C8.014,22.410 7.864,22.265 7.794,22.219 C7.725,22.173 7.592,22.058 7.395,21.872 C7.199,21.688 7.043,21.572 6.927,21.526 C6.812,21.480 6.656,21.411 6.459,21.318 C6.263,21.226 6.072,21.162 5.887,21.127 C5.703,21.093 5.495,21.075 5.264,21.075 C4.385,21.075 3.599,21.399 2.906,22.046 C2.837,22.115 2.628,22.306 2.282,22.618 C1.935,22.931 1.699,23.150 1.571,23.277 C1.444,23.404 1.254,23.618 0.999,23.918 C0.745,24.219 0.566,24.473 0.462,24.681 C0.358,24.889 0.254,25.143 0.150,25.444 C0.046,25.744 -0.006,26.045 -0.006,26.345 C-0.006,27.270 0.317,28.055 0.964,28.703 L15.109,42.848 C15.757,43.495 16.543,43.818 17.467,43.818 C17.767,43.818 18.068,43.767 18.369,43.663 C18.669,43.559 18.923,43.455 19.131,43.351 C19.339,43.247 19.593,43.068 19.894,42.813 C20.194,42.559 20.408,42.368 20.535,42.241 C20.662,42.113 20.882,41.877 21.194,41.530 C21.506,41.184 21.697,40.975 21.766,40.906 C22.413,40.212 22.737,39.426 22.737,38.548 C22.737,38.317 22.719,38.109 22.684,37.924 C22.650,37.739 22.586,37.548 22.494,37.351 C22.401,37.155 22.332,36.999 22.286,36.883 C22.240,36.768 22.124,36.612 21.939,36.415 C21.754,36.219 21.639,36.086 21.593,36.016 C21.546,35.947 21.402,35.796 21.159,35.565 C20.916,35.334 20.772,35.195 20.726,35.148 C21.049,35.472 21.442,35.634 21.904,35.634 C22.367,35.634 22.760,35.472 23.083,35.148 L27.452,30.780 L36.327,39.655 C35.333,40.649 34.836,41.757 34.836,42.983 C34.836,44.231 35.276,45.271 36.153,46.103 L48.739,58.723 C49.594,59.577 50.634,60.005 51.859,60.005 C53.061,60.005 54.112,59.577 55.014,58.723 L58.723,54.978 C59.578,54.122 60.006,53.083 60.006,51.858 C60.006,50.658 59.578,49.607 58.721,48.706 Z"/>
</svg>
