<svg xmlns="http://www.w3.org/2000/svg" xmlns:xlink="http://www.w3.org/1999/xlink" width="141px" height="141px">
  <path fill-rule="evenodd" fill="#183f7c"
 d="M137.995,114.458 L108.421,84.883 C106.304,82.873 103.831,81.868 101.007,81.868 C98.128,81.868 95.521,83.036 93.187,85.372 L72.331,64.515 L82.599,54.249 C83.359,53.488 83.740,52.565 83.740,51.478 C83.740,50.392 83.359,49.469 82.599,48.708 C82.705,48.817 83.033,49.156 83.575,49.727 C84.118,50.298 84.472,50.637 84.636,50.746 C84.799,50.854 85.111,51.125 85.572,51.560 C86.036,51.994 86.400,52.266 86.673,52.374 C86.947,52.482 87.314,52.645 87.777,52.863 C88.238,53.080 88.685,53.229 89.120,53.311 C89.554,53.392 90.044,53.433 90.587,53.433 C92.650,53.433 94.497,52.673 96.126,51.152 C96.290,50.989 96.779,50.541 97.593,49.807 C98.409,49.073 98.964,48.558 99.263,48.259 C99.562,47.960 100.011,47.458 100.609,46.752 C101.206,46.046 101.628,45.448 101.872,44.959 C102.115,44.471 102.359,43.873 102.605,43.167 C102.849,42.461 102.970,41.755 102.970,41.049 C102.970,38.876 102.210,37.029 100.689,35.508 L67.448,2.268 C65.927,0.747 64.080,-0.013 61.908,-0.013 C61.202,-0.013 60.496,0.109 59.789,0.353 C59.083,0.597 58.486,0.842 57.997,1.086 C57.508,1.330 56.911,1.751 56.205,2.349 C55.499,2.947 54.997,3.395 54.698,3.694 C54.399,3.993 53.883,4.550 53.150,5.364 C52.416,6.179 51.968,6.668 51.805,6.831 C50.285,8.460 49.524,10.307 49.524,12.371 C49.524,12.914 49.565,13.403 49.647,13.837 C49.729,14.272 49.878,14.720 50.096,15.182 C50.312,15.644 50.475,16.011 50.584,16.282 C50.692,16.553 50.963,16.921 51.398,17.383 C51.833,17.844 52.104,18.157 52.213,18.320 C52.321,18.484 52.661,18.836 53.231,19.380 C53.802,19.923 54.142,20.250 54.250,20.358 C53.490,19.597 52.566,19.217 51.480,19.217 C50.394,19.217 49.471,19.597 48.710,20.358 L20.353,48.711 C19.592,49.472 19.212,50.395 19.212,51.481 C19.212,52.568 19.592,53.492 20.353,54.252 C20.244,54.143 19.918,53.803 19.375,53.233 C18.832,52.662 18.479,52.323 18.316,52.214 C18.153,52.106 17.841,51.835 17.379,51.400 C16.917,50.966 16.550,50.694 16.279,50.586 C16.008,50.478 15.641,50.315 15.180,50.097 C14.719,49.880 14.270,49.731 13.835,49.649 C13.401,49.568 12.912,49.527 12.369,49.527 C10.305,49.527 8.457,50.287 6.828,51.808 C6.666,51.971 6.176,52.420 5.362,53.153 C4.547,53.887 3.991,54.402 3.692,54.701 C3.393,55.000 2.946,55.502 2.348,56.208 C1.751,56.914 1.329,57.512 1.085,58.001 C0.841,58.489 0.597,59.087 0.352,59.793 C0.108,60.499 -0.015,61.205 -0.015,61.911 C-0.015,64.084 0.745,65.930 2.266,67.451 L35.507,100.692 C37.028,102.212 38.875,102.973 41.047,102.973 C41.753,102.973 42.459,102.852 43.166,102.608 C43.872,102.364 44.470,102.118 44.958,101.874 C45.448,101.630 46.044,101.209 46.750,100.612 C47.456,100.013 47.958,99.565 48.257,99.266 C48.556,98.966 49.073,98.410 49.806,97.595 C50.539,96.782 50.987,96.291 51.150,96.128 C52.670,94.499 53.431,92.651 53.431,90.588 C53.431,90.045 53.390,89.557 53.308,89.121 C53.226,88.686 53.077,88.238 52.860,87.776 C52.643,87.315 52.480,86.948 52.371,86.676 C52.263,86.405 51.993,86.037 51.557,85.575 C51.122,85.114 50.851,84.801 50.743,84.638 C50.634,84.475 50.294,84.121 49.724,83.577 C49.153,83.034 48.813,82.707 48.705,82.598 C49.465,83.360 50.389,83.741 51.475,83.741 C52.561,83.741 53.485,83.360 54.245,82.598 L64.512,72.332 L85.368,93.190 C83.033,95.526 81.865,98.130 81.865,101.009 C81.865,103.944 82.898,106.386 84.960,108.343 L114.536,137.998 C116.546,140.007 118.990,141.013 121.868,141.013 C124.693,141.013 127.163,140.007 129.283,137.998 L137.999,129.198 C140.009,127.188 141.015,124.745 141.015,121.867 C141.015,119.047 140.009,116.575 137.995,114.458 Z"/>
</svg>
