<svg xmlns="http://www.w3.org/2000/svg" xmlns:xlink="http://www.w3.org/1999/xlink" width="62px" height="60px">
  <path fill-rule="evenodd"  fill="#183f7c" d="M60.865,42.595 C60.517,42.913 60.106,43.161 59.647,43.313 C59.292,43.430 58.916,43.499 58.519,43.499 L58.428,43.499 L37.764,43.499 C35.842,43.499 34.283,41.954 34.283,40.049 L34.283,36.225 L34.283,35.156 L34.283,34.086 L34.283,32.368 C34.283,30.463 35.842,28.917 37.764,28.917 L53.387,28.917 L57.279,28.917 L58.359,28.917 L58.428,28.917 L58.519,28.917 C58.916,28.917 59.292,28.986 59.647,29.103 C60.106,29.262 60.517,29.503 60.865,29.821 C61.561,30.449 62.000,31.360 62.000,32.368 L62.000,40.049 C62.000,41.056 61.561,41.967 60.865,42.595 ZM45.033,35.749 C45.033,34.797 44.253,34.024 43.292,34.024 L42.429,34.024 L42.136,34.024 C41.732,34.024 41.363,34.169 41.064,34.397 C40.653,34.707 40.396,35.197 40.396,35.749 L40.396,36.895 C40.396,37.847 41.175,38.620 42.136,38.620 L43.292,38.620 C44.253,38.620 45.033,37.847 45.033,36.895 L45.033,35.749 ZM56.604,26.522 L55.525,26.522 L37.757,26.522 C37.520,26.522 37.284,26.536 37.054,26.563 C35.675,26.722 34.443,27.357 33.524,28.296 C32.486,29.352 31.846,30.794 31.846,32.381 L31.846,34.755 L31.846,35.825 L31.846,36.895 L31.846,40.056 C31.846,43.292 34.499,45.922 37.764,45.922 L58.421,45.922 L58.421,55.549 C58.421,57.454 56.862,59.000 54.940,59.000 L3.481,59.000 C1.560,59.000 0.000,57.454 0.000,55.549 L0.000,21.450 L0.000,17.516 L0.000,17.102 C0.000,16.791 0.049,16.487 0.125,16.198 C0.251,15.735 0.473,15.314 0.766,14.948 C1.406,14.155 2.388,13.651 3.488,13.651 L5.563,13.651 L6.183,13.651 L9.525,13.651 L13.493,13.651 L43.759,13.651 L51.995,13.651 L53.074,13.651 L54.153,13.651 L54.947,13.651 C56.869,13.651 58.428,15.197 58.421,17.102 L58.421,26.522 L57.683,26.522 L56.604,26.522 ZM22.419,11.236 L40.152,6.439 L45.959,4.866 C46.265,4.783 46.571,4.741 46.878,4.741 C48.409,4.741 49.816,5.749 50.234,7.288 L51.320,11.236 L42.547,11.236 L22.419,11.236 ZM11.105,11.236 L33.231,0.366 C34.951,-0.483 37.040,0.221 37.896,1.926 L39.205,4.548 L14.489,11.236 L11.105,11.236 Z"/>
</svg>
