<svg xmlns="http://www.w3.org/2000/svg" width="60" height="60"><path fill-rule="evenodd" fill="#183f7c" d="M30 60C13.458 60 0 46.542 0 30S13.458 0 30 0s30 13.458 30 30-13.458 30-30 30zm-1-8.121a1 1 0 1 0 2 0v-1a1 1 0 1 0-2 0v1zm-20-23H8a1 1 0 1 0 0 2h1a1 1 0 1 0 0-2zm6.858-14.557l-.707-.707a.999.999 0 1 0-1.414 1.414l.707.707a.997.997 0 0 0 1.414 0 .999.999 0 0 0 0-1.414zm0 29.7a.999.999 0 0 0-1.414 0l-.707.707a.999.999 0 1 0 1.414 1.414l.707-.707a.999.999 0 0 0 0-1.414zM31 7.879a1 1 0 1 0-2 0v1a1 1 0 1 0 2 0v-1zm0 18.142V15.879a1 1 0 1 0-2 0v10.142a3.995 3.995 0 0 0-2.858 2.858H19a1 1 0 1 0 0 2h7.142c.447 1.72 2 3 3.858 3 2.206 0 4-1.794 4-4 0-1.859-1.28-3.411-3-3.858zm15.263-12.406a.999.999 0 0 0-1.414 0l-.707.707a.999.999 0 1 0 1.414 1.414l.707-.707a.999.999 0 0 0 0-1.414zm0 31.114l-.707-.707a.999.999 0 1 0-1.414 1.414l.707.707a.997.997 0 0 0 1.414 0 .999.999 0 0 0 0-1.414zM52 28.879h-1a1 1 0 1 0 0 2h1a1 1 0 1 0 0-2zm-22 3a2 2 0 1 1-.001-3.999 2 2 0 0 1 .001 4z"/></svg>