<svg xmlns="http://www.w3.org/2000/svg" width="60" height="60"><path fill-rule="evenodd" fill="#183f7c" d="M58.721 48.706L46.137 36.12c-.901-.855-1.953-1.282-3.155-1.282-1.225 0-2.335.497-3.328 1.491l-8.875-8.876 4.369-4.368c.324-.324.486-.717.486-1.179 0-.462-.162-.855-.486-1.179.046.046.185.19.416.434.231.242.382.387.451.433.07.046.202.161.398.347.198.184.353.3.469.346.117.046.273.115.47.208.196.092.386.156.572.191.184.034.393.052.624.052.877 0 1.664-.324 2.357-.971.07-.07.277-.26.624-.572.347-.313.583-.532.711-.659.127-.127.318-.341.572-.641.255-.301.434-.555.538-.763.103-.208.207-.463.312-.763.103-.3.155-.601.155-.901 0-.925-.323-1.711-.971-2.358L28.701.965c-.647-.647-1.433-.97-2.357-.97-.3 0-.601.051-.902.155a6.45 6.45 0 0 0-.762.312c-.208.104-.462.283-.763.538-.3.254-.514.445-.641.572-.127.127-.347.364-.659.711-.312.346-.503.555-.572.624-.647.693-.971 1.479-.971 2.357 0 .231.018.439.052.624.035.185.099.376.191.573.092.196.162.352.208.468.046.115.161.271.347.468.185.196.3.329.346.399.046.07.191.219.434.451.242.231.387.37.433.416a1.602 1.602 0 0 0-1.178-.486c-.463 0-.856.162-1.179.486L8.661 20.728a1.605 1.605 0 0 0-.486 1.179c0 .462.162.855.486 1.179a38.624 38.624 0 0 1-.416-.434c-.231-.242-.381-.387-.451-.433a4.004 4.004 0 0 1-.399-.347c-.196-.184-.352-.3-.468-.346a8.894 8.894 0 0 1-.468-.208 2.403 2.403 0 0 0-.572-.191 3.445 3.445 0 0 0-.623-.052c-.879 0-1.665.324-2.358.971-.069.069-.278.26-.624.572-.347.313-.583.532-.711.659-.127.127-.317.341-.572.641-.254.301-.433.555-.537.763a6.402 6.402 0 0 0-.312.763c-.104.3-.156.601-.156.901 0 .925.323 1.71.97 2.358l14.145 14.145c.648.647 1.434.97 2.358.97.3 0 .601-.051.902-.155.3-.104.554-.208.762-.312.208-.104.462-.283.763-.538.3-.254.514-.445.641-.572.127-.128.347-.364.659-.711.312-.346.503-.555.572-.624.647-.694.971-1.48.971-2.358a3.37 3.37 0 0 0-.053-.624 2.376 2.376 0 0 0-.19-.573 8.21 8.21 0 0 1-.208-.468c-.046-.115-.162-.271-.347-.468a3.854 3.854 0 0 1-.346-.399c-.047-.069-.191-.22-.434-.451a25.93 25.93 0 0 1-.433-.417c.323.324.716.486 1.178.486.463 0 .856-.162 1.179-.486l4.369-4.368 8.875 8.875c-.994.994-1.491 2.102-1.491 3.328 0 1.248.44 2.288 1.317 3.12l12.586 12.62c.855.854 1.895 1.282 3.12 1.282 1.202 0 2.253-.428 3.155-1.282l3.709-3.745c.855-.856 1.283-1.895 1.283-3.12 0-1.2-.428-2.251-1.285-3.152z"/></svg>