<svg xmlns="http://www.w3.org/2000/svg" width="141" height="141"><path fill-rule="evenodd" fill="#183f7c" d="M137.995 114.458l-29.574-29.575c-2.117-2.01-4.59-3.015-7.414-3.015-2.879 0-5.486 1.168-7.82 3.504L72.331 64.515l10.268-10.266c.76-.761 1.141-1.684 1.141-2.771 0-1.086-.381-2.009-1.141-2.77.106.109.434.448.976 1.019.543.571.897.91 1.061 1.019.163.108.475.379.936.814.464.434.828.706 1.101.814.274.108.641.271 1.104.489a5.59 5.59 0 0 0 1.343.448c.434.081.924.122 1.467.122 2.063 0 3.91-.76 5.539-2.281.164-.163.653-.611 1.467-1.345a50.656 50.656 0 0 0 1.67-1.548c.299-.299.748-.801 1.346-1.507.597-.706 1.019-1.304 1.263-1.793.243-.488.487-1.086.733-1.792a6.447 6.447 0 0 0 .365-2.118c0-2.173-.76-4.02-2.281-5.541L67.448 2.268C65.927.747 64.08-.013 61.908-.013c-.706 0-1.412.122-2.119.366-.706.244-1.303.489-1.792.733-.489.244-1.086.665-1.792 1.263-.706.598-1.208 1.046-1.507 1.345a51.67 51.67 0 0 0-1.548 1.67 59.769 59.769 0 0 1-1.345 1.467c-1.52 1.629-2.281 3.476-2.281 5.54 0 .543.041 1.032.123 1.466.082.435.231.883.449 1.345.216.462.379.829.488 1.1.108.271.379.639.814 1.101.435.461.706.774.815.937.108.164.448.516 1.018 1.06.571.543.911.87 1.019.978-.76-.761-1.684-1.141-2.77-1.141s-2.009.38-2.77 1.141L20.353 48.711c-.761.761-1.141 1.684-1.141 2.77 0 1.087.38 2.011 1.141 2.771a96.729 96.729 0 0 1-.978-1.019c-.543-.571-.896-.91-1.059-1.019-.163-.108-.475-.379-.937-.814-.462-.434-.829-.706-1.1-.814a20.355 20.355 0 0 1-1.099-.489 5.604 5.604 0 0 0-1.345-.448 8.032 8.032 0 0 0-1.466-.122c-2.064 0-3.912.76-5.541 2.281-.162.163-.652.612-1.466 1.345a51.746 51.746 0 0 0-1.67 1.548c-.299.299-.746.801-1.344 1.507-.597.706-1.019 1.304-1.263 1.793a15.233 15.233 0 0 0-.733 1.792 6.45 6.45 0 0 0-.367 2.118c0 2.173.76 4.019 2.281 5.54l33.241 33.241c1.521 1.52 3.368 2.281 5.54 2.281.706 0 1.412-.121 2.119-.365.706-.244 1.304-.49 1.792-.734.49-.244 1.086-.665 1.792-1.262.706-.599 1.208-1.047 1.507-1.346.299-.3.816-.856 1.549-1.671a62.729 62.729 0 0 1 1.344-1.467c1.52-1.629 2.281-3.477 2.281-5.54 0-.543-.041-1.031-.123-1.467a5.619 5.619 0 0 0-.448-1.345c-.217-.461-.38-.828-.489-1.1-.108-.271-.378-.639-.814-1.101-.435-.461-.706-.774-.814-.937-.109-.163-.449-.517-1.019-1.061-.571-.543-.911-.87-1.019-.979.76.762 1.684 1.143 2.77 1.143s2.01-.381 2.77-1.143l10.267-10.266L85.368 93.19c-2.335 2.336-3.503 4.94-3.503 7.819 0 2.935 1.033 5.377 3.095 7.334l29.576 29.655c2.01 2.009 4.454 3.015 7.332 3.015 2.825 0 5.295-1.006 7.415-3.015l8.716-8.8c2.01-2.01 3.016-4.453 3.016-7.331 0-2.82-1.006-5.292-3.02-7.409z"/></svg>