<svg xmlns="http://www.w3.org/2000/svg" width="891" height="855"><path fill-rule="evenodd" fill="#183f7c" d="M874.69 617.272c-5.003 4.601-10.906 8.201-17.51 10.402-5.103 1.7-10.506 2.7-16.209 2.7H542.704c-27.615 0-50.028-22.403-50.028-50.006V469.055c0-27.603 22.413-50.006 50.028-50.006h298.267c5.703 0 11.106 1.001 16.209 2.701 6.604 2.3 12.507 5.8 17.51 10.401 10.006 9.101 16.309 22.302 16.309 36.904v111.313c0 14.602-6.303 27.803-16.309 36.904zm-227.527-99.211c0-13.802-11.207-25.003-25.014-25.003h-16.61c-5.803 0-11.106 2.1-15.408 5.401-5.903 4.5-9.606 11.601-9.606 19.602v16.602c0 13.801 11.207 25.003 25.014 25.003h16.61c13.807 0 25.014-11.202 25.014-25.003v-16.602zm166.293-133.716H542.604c-3.402 0-6.804.2-10.105.6-19.812 2.301-37.521 11.502-50.729 25.103-14.908 15.302-24.113 36.205-24.113 59.207v111.213c0 46.906 38.121 85.01 85.047 85.01H839.57v139.516c0 27.603-22.412 50.006-50.028 50.006H50.028C22.413 855 0 832.597 0 804.994V247.83c0-4.501.701-8.901 1.801-13.102 1.801-6.701 5.003-12.801 9.206-18.102 9.205-11.501 23.313-18.802 39.121-18.802h739.515c27.615 0 50.028 22.402 49.927 50.006v136.515h-26.114zM322.181 162.82l254.842-69.508 83.447-22.803c4.403-1.2 8.805-1.8 13.208-1.8 22.012 0 42.223 14.602 48.227 36.904l15.608 57.207H322.181zm-162.591 0L477.568 5.302C502.282-7 532.298 3.201 544.605 27.904l18.811 38.005-355.199 96.911H159.59z"/></svg>