<svg xmlns="http://www.w3.org/2000/svg" width="62" height="60"><path fill-rule="evenodd" fill="#183f7c" d="M60.865 42.595a3.38 3.38 0 0 1-1.218.718 3.585 3.585 0 0 1-1.128.186H37.764c-1.922 0-3.481-1.545-3.481-3.45v-7.681c0-1.905 1.559-3.451 3.481-3.451h20.755a3.483 3.483 0 0 1 2.346.904A3.426 3.426 0 0 1 62 32.368v7.681a3.426 3.426 0 0 1-1.135 2.546zm-15.832-6.846c0-.952-.78-1.725-1.741-1.725h-1.156c-.404 0-.773.145-1.072.373-.411.31-.668.8-.668 1.352v1.146c0 .952.779 1.725 1.74 1.725h1.156c.961 0 1.741-.773 1.741-1.725v-1.146zm11.571-9.227H37.757a5.877 5.877 0 0 0-4.233 1.774 5.812 5.812 0 0 0-1.678 4.085v7.675c0 3.236 2.653 5.866 5.918 5.866h20.657v9.627c0 1.905-1.559 3.451-3.481 3.451H3.481C1.56 59 0 57.454 0 55.549V17.102a3.447 3.447 0 0 1 .766-2.154 3.487 3.487 0 0 1 2.722-1.297h51.459c1.922 0 3.481 1.546 3.474 3.451v9.42h-1.817zM22.419 11.236l17.733-4.797 5.807-1.573c.306-.083.612-.125.919-.125 1.531 0 2.938 1.008 3.356 2.547l1.086 3.948H22.419zm-11.314 0L33.231.366a3.497 3.497 0 0 1 4.665 1.56l1.309 2.622-24.716 6.688h-3.384z"/></svg>